<?xml version="1.0" encoding="UTF-8" standalone="no"?>
<!-- Created with Inkscape (http://www.inkscape.org/) -->

<svg
   xmlns:dc="http://purl.org/dc/elements/1.1/"
   xmlns:cc="http://creativecommons.org/ns#"
   xmlns:rdf="http://www.w3.org/1999/02/22-rdf-syntax-ns#"
   xmlns:svg="http://www.w3.org/2000/svg"
   xmlns="http://www.w3.org/2000/svg"
   xmlns:sodipodi="http://sodipodi.sourceforge.net/DTD/sodipodi-0.dtd"
   xmlns:inkscape="http://www.inkscape.org/namespaces/inkscape"
   id="svg2"
   version="1.1"
   inkscape:version="0.91 r13725"
   xml:space="preserve"
   width="638.13647"
   height="141.35825"
   viewBox="0 0 638.13645 141.35825"
   sodipodi:docname="logo-horz.svg"
   inkscape:export-filename="/home/anttileppa/git/cdn/assets/metatavu/logo-128x-128"
   inkscape:export-xdpi="54.419998"
   inkscape:export-ydpi="54.419998"><metadata
     id="metadata8"><rdf:RDF><cc:Work
         rdf:about=""><dc:format>image/svg+xml</dc:format><dc:type
           rdf:resource="http://purl.org/dc/dcmitype/StillImage" /><dc:title></dc:title></cc:Work></rdf:RDF></metadata><defs
     id="defs6"><clipPath
       clipPathUnits="userSpaceOnUse"
       id="clipPath24"><path
         d="m 0,595.28 841.89,0 L 841.89,0 0,0 0,595.28 Z"
         id="path26"
         inkscape:connector-curvature="0" /></clipPath></defs><sodipodi:namedview
     pagecolor="#ffffff"
     bordercolor="#666666"
     borderopacity="1"
     objecttolerance="10"
     gridtolerance="10"
     guidetolerance="10"
     inkscape:pageopacity="0"
     inkscape:pageshadow="2"
     inkscape:window-width="1598"
     inkscape:window-height="1170"
     id="namedview4"
     showgrid="false"
     inkscape:zoom="0.72594785"
     inkscape:cx="200.93291"
     inkscape:cy="173.39494"
     inkscape:window-x="0"
     inkscape:window-y="0"
     inkscape:window-maximized="1"
     inkscape:current-layer="g10"
     fit-margin-top="0"
     fit-margin-left="0"
     fit-margin-right="0"
     fit-margin-bottom="0" /><g
     id="g10"
     inkscape:groupmode="layer"
     inkscape:label="logo-paksumpi-teksti"
     transform="matrix(1.25,0,0,-1.25,-21.143271,151.72671)"><g
       id="g4356"
       transform="translate(-12.122083,-195.05533)"><g
         transform="translate(29.0367,204.7577)"
         id="g68"><path
           inkscape:connector-curvature="0"
           id="path70"
           style="fill:#4f4c4d;fill-opacity:1;fill-rule:nonzero;stroke:none"
           d="M 0,0 26.258,0 42.708,35.342 57.858,0 78.565,0 47.182,111.679 0,0 Z" /></g><g
         transform="translate(165.4026,204.7577)"
         id="g72"><path
           inkscape:connector-curvature="0"
           id="path74"
           style="fill:#f1511b;fill-opacity:1;fill-rule:nonzero;stroke:none"
           d="M 0,0 -26.258,0 -42.708,35.342 -57.858,0 -78.565,0 -47.182,111.679 0,0 Z" /></g><g
         transform="translate(241.8516,234.6443)"
         id="g76"><path
           inkscape:connector-curvature="0"
           id="path78"
           style="fill:#f1511b;fill-opacity:1;fill-rule:nonzero;stroke:none"
           d="m 0,0 0,-29.95 -5.952,0 0,27.262 c 0,4.127 -0.096,6.719 -0.384,9.311 -0.864,6.815 -4.607,10.751 -11.327,10.751 -7.199,0 -12.767,-5.663 -12.767,-20.734 l 0,-26.59 -5.951,0 0,27.262 c 0,4.127 -0.097,6.719 -0.385,9.311 -0.863,6.815 -4.607,10.751 -11.327,10.751 -7.199,0 -12.767,-5.663 -12.767,-20.734 l 0,-26.59 -5.952,0 0,50.78 5.952,0 0,-8.735 2.88,5.664 c 2.976,3.071 6.912,4.415 11.711,4.415 8.063,0 13.055,-4.32 14.783,-10.847 l 3.936,6.432 c 2.88,3.071 6.911,4.415 11.711,4.415 9.119,0 14.207,-5.568 15.359,-13.631 C -0.096,5.951 0,4.127 0,0" /></g><g
         transform="translate(256.4478,233.0124)"
         id="g80"><path
           inkscape:connector-curvature="0"
           id="path82"
           style="fill:#f1511b;fill-opacity:1;fill-rule:nonzero;stroke:none"
           d="M 0,0 32.637,0 C 31.965,13.055 25.438,19.006 16.895,19.006 8.543,19.006 0.864,12.671 0,0 M 38.493,-4.704 0,-4.704 c 0.672,-14.975 8.255,-20.255 16.511,-20.255 7.103,0 13.439,4.32 15.262,12.672 l 6.24,0 c -2.4,-11.808 -11.711,-17.375 -21.887,-17.375 -12.67,0 -22.558,8.831 -22.558,26.685 0,16.32 10.176,26.783 23.518,26.783 14.207,0 21.599,-11.327 21.599,-25.342 0,-0.672 0,-1.632 -0.192,-3.168" /></g><g
         transform="translate(312.2222,218.613)"
         id="g84"><path
           inkscape:connector-curvature="0"
           id="path86"
           style="fill:#f1511b;fill-opacity:1;fill-rule:nonzero;stroke:none"
           d="m 0,0 c 0,-2.111 0,-3.168 0.096,-4.512 0.384,-4.895 2.496,-6.143 9.311,-5.279 l 0,-4.416 c -2.015,-0.384 -4.128,-0.48 -6.143,-0.48 -5.664,0 -8.639,2.496 -9.119,8.064 -0.097,1.727 -0.097,3.647 -0.097,6.527 l 0,31.966 -6.527,0 0,4.608 6.527,0 0,11.231 5.952,0 0,-11.231 9.695,0 0,-4.608 L 0,31.87 0,0 Z" /></g><g
         transform="translate(359.9321,224.2771)"
         id="g88"><path
           inkscape:connector-curvature="0"
           id="path90"
           style="fill:#f1511b;fill-opacity:1;fill-rule:nonzero;stroke:none"
           d="m 0,0 0,5.855 c -14.303,0.96 -26.11,-2.4 -26.11,-12.191 0,-6.432 4.031,-9.888 11.423,-9.888 C -5.856,-16.224 0,-9.504 0,0 M 0.096,-10.367 -2.4,-15.743 c -3.552,-3.552 -8.543,-5.184 -14.111,-5.184 -9.407,0 -16.127,4.896 -16.127,14.111 0,11.615 11.039,17.279 29.374,17.279 l 3.264,0 0,1.824 c 0,2.304 0,4.224 -0.192,6.239 -0.48,5.856 -4.032,9.215 -11.328,9.215 -7.007,0 -11.999,-3.743 -12.767,-11.615 l -6.239,0 c 0.672,9.983 8.255,16.415 19.006,16.415 11.232,0 16.511,-5.088 17.279,-13.438 0.192,-2.208 0.192,-4.321 0.192,-6.72 l 0,-17.759 c 0,-4.512 0.288,-8.159 0.96,-14.207 l -5.951,0 -0.864,9.216 z" /></g><g
         transform="translate(386.4297,218.613)"
         id="g92"><path
           inkscape:connector-curvature="0"
           id="path94"
           style="fill:#4f4c4d;fill-opacity:1;fill-rule:nonzero;stroke:none"
           d="m 0,0 c 0,-2.111 0,-3.168 0.096,-4.512 0.384,-4.895 2.496,-6.143 9.311,-5.279 l 0,-4.416 c -2.015,-0.384 -4.127,-0.48 -6.143,-0.48 -5.664,0 -8.639,2.496 -9.119,8.064 -0.097,1.727 -0.097,3.647 -0.097,6.527 l 0,31.966 -6.527,0 0,4.608 6.527,0 0,11.231 5.952,0 0,-11.231 9.695,0 0,-4.608 L 0,31.87 0,0 Z" /></g><g
         transform="translate(434.1387,224.2771)"
         id="g96"><path
           inkscape:connector-curvature="0"
           id="path98"
           style="fill:#4f4c4d;fill-opacity:1;fill-rule:nonzero;stroke:none"
           d="m 0,0 0,5.855 c -14.302,0.96 -26.109,-2.4 -26.109,-12.191 0,-6.432 4.031,-9.888 11.423,-9.888 C -5.855,-16.224 0,-9.504 0,0 m 0.097,-10.367 -2.496,-5.376 c -3.552,-3.552 -8.544,-5.184 -14.111,-5.184 -9.407,0 -16.127,4.896 -16.127,14.111 0,11.615 11.04,17.279 29.373,17.279 l 3.264,0 0,1.824 c 0,2.304 0,4.224 -0.191,6.239 -0.481,5.856 -4.033,9.215 -11.328,9.215 -7.007,0 -11.998,-3.743 -12.767,-11.615 l -6.239,0 c 0.672,9.983 8.255,16.415 19.006,16.415 11.231,0 16.511,-5.088 17.279,-13.438 0.192,-2.208 0.192,-4.321 0.192,-6.72 l 0,-17.759 c 0,-4.512 0.288,-8.159 0.96,-14.207 l -5.952,0 -0.863,9.216 z" /></g><g
         transform="translate(473.4033,204.6941)"
         id="g100"><path
           inkscape:connector-curvature="0"
           id="path102"
           style="fill:#4f4c4d;fill-opacity:1;fill-rule:nonzero;stroke:none"
           d="m 0,0 -7.392,0 -19.486,50.78 6.527,0 16.895,-46.364 16.703,46.364 6.335,0 L 0,0 Z" /></g><g
         transform="translate(539.5459,204.6941)"
         id="g104"><path
           inkscape:connector-curvature="0"
           id="path106"
           style="fill:#4f4c4d;fill-opacity:1;fill-rule:nonzero;stroke:none"
           d="m 0,0 -5.951,0 0,9.791 -2.784,-5.663 c -4.032,-3.936 -8.64,-5.472 -14.207,-5.472 -10.368,0 -16.511,5.856 -17.663,13.919 -0.288,2.592 -0.384,4.416 -0.384,8.543 l 0,29.662 5.952,0 0,-28.318 c 0,-2.4 0.096,-4.991 0.384,-7.583 0.767,-6.72 5.183,-11.423 13.054,-11.423 8.448,0 15.648,6.144 15.648,22.078 l 0,25.246 L 0,50.78 0,0 Z" /></g></g></g></svg>