<?xml version="1.0" encoding="UTF-8" standalone="no"?>
<!-- Created with Inkscape (http://www.inkscape.org/) -->

<svg
   xmlns:dc="http://purl.org/dc/elements/1.1/"
   xmlns:cc="http://creativecommons.org/ns#"
   xmlns:rdf="http://www.w3.org/1999/02/22-rdf-syntax-ns#"
   xmlns:svg="http://www.w3.org/2000/svg"
   xmlns="http://www.w3.org/2000/svg"
   xmlns:sodipodi="http://sodipodi.sourceforge.net/DTD/sodipodi-0.dtd"
   xmlns:inkscape="http://www.inkscape.org/namespaces/inkscape"
   id="svg2"
   version="1.1"
   inkscape:version="0.91 r13725"
   xml:space="preserve"
   width="267.90036"
   height="267.90036"
   viewBox="0 0 267.90035 267.90036"
   sodipodi:docname="logo-text.svg"
   inkscape:export-filename="/home/anttileppa/git/cdn/assets/metatavu/logo-128x-128"
   inkscape:export-xdpi="54.419998"
   inkscape:export-ydpi="54.419998"><metadata
     id="metadata8"><rdf:RDF><cc:Work
         rdf:about=""><dc:format>image/svg+xml</dc:format><dc:type
           rdf:resource="http://purl.org/dc/dcmitype/StillImage" /><dc:title></dc:title></cc:Work></rdf:RDF></metadata><defs
     id="defs6"><clipPath
       clipPathUnits="userSpaceOnUse"
       id="clipPath24"><path
         d="m 0,595.28 841.89,0 L 841.89,0 0,0 0,595.28 Z"
         id="path26"
         inkscape:connector-curvature="0" /></clipPath></defs><sodipodi:namedview
     pagecolor="#ffffff"
     bordercolor="#666666"
     borderopacity="1"
     objecttolerance="10"
     gridtolerance="10"
     guidetolerance="10"
     inkscape:pageopacity="0"
     inkscape:pageshadow="2"
     inkscape:window-width="1918"
     inkscape:window-height="1000"
     id="namedview4"
     showgrid="false"
     fit-margin-top="0"
     fit-margin-left="0"
     fit-margin-right="0"
     fit-margin-bottom="0"
     inkscape:zoom="2.0532906"
     inkscape:cx="222.07618"
     inkscape:cy="144.80153"
     inkscape:window-x="0"
     inkscape:window-y="26"
     inkscape:window-maximized="1"
     inkscape:current-layer="g10" /><g
     id="g10"
     inkscape:groupmode="layer"
     inkscape:label="logo-paksumpi-teksti"
     transform="matrix(1.25,0,0,-1.25,419.98221,995.94856)"><g
       id="g4315"
       transform="translate(-372.69802,227.01355)"><g
         transform="translate(37.3254,395.3853)"
         id="g12"><path
           inkscape:connector-curvature="0"
           id="path14"
           style="fill:#4f4c4d;fill-opacity:1;fill-rule:nonzero;stroke:none"
           d="M 0,0 40.996,0 66.678,55.178 90.331,0 122.661,0 73.664,174.36 0,0 Z" /></g><g
         transform="translate(250.2277,395.3853)"
         id="g16"><path
           inkscape:connector-curvature="0"
           id="path18"
           style="fill:#f1511b;fill-opacity:1;fill-rule:nonzero;stroke:none"
           d="M 0,0 -40.996,0 -66.678,55.178 -90.331,0 -122.661,0 -73.664,174.36 0,0 Z" /></g><g
         transform="translate(76.7656,373.6809)"
         id="g28"><path
           inkscape:connector-curvature="0"
           id="path30"
           style="fill:#f1511b;fill-opacity:1;fill-rule:nonzero;stroke:none"
           d="m 0,0 0,-17.472 -3.472,0 0,15.904 c 0,2.408 -0.056,3.92 -0.224,5.432 -0.504,3.976 -2.688,6.272 -6.608,6.272 -4.2,0 -7.448,-3.304 -7.448,-12.096 l 0,-15.512 -3.472,0 0,15.904 c 0,2.408 -0.056,3.92 -0.224,5.432 -0.504,3.976 -2.688,6.272 -6.608,6.272 -4.2,0 -7.448,-3.304 -7.448,-12.096 l 0,-15.512 -3.472,0 0,29.624 3.472,0 0,-5.096 1.68,3.304 c 1.736,1.792 4.032,2.576 6.832,2.576 4.704,0 7.616,-2.52 8.624,-6.328 l 2.296,3.752 c 1.68,1.792 4.032,2.576 6.832,2.576 5.32,0 8.288,-3.248 8.96,-7.952 C -0.056,3.472 0,2.408 0,0" /></g><g
         transform="translate(85.2773,372.7292)"
         id="g32"><path
           inkscape:connector-curvature="0"
           id="path34"
           style="fill:#f1511b;fill-opacity:1;fill-rule:nonzero;stroke:none"
           d="M 0,0 19.04,0 C 18.648,7.616 14.84,11.088 9.856,11.088 4.984,11.088 0.504,7.392 0,0 M 22.456,-2.744 0,-2.744 c 0.392,-8.736 4.816,-11.816 9.632,-11.816 4.144,0 7.84,2.52 8.904,7.392 l 3.64,0 c -1.4,-6.888 -6.832,-10.136 -12.768,-10.136 -7.392,0 -13.16,5.152 -13.16,15.568 0,9.52 5.936,15.624 13.72,15.624 8.288,0 12.6,-6.608 12.6,-14.784 0,-0.392 0,-0.952 -0.112,-1.848" /></g><g
         transform="translate(117.8125,364.3293)"
         id="g36"><path
           inkscape:connector-curvature="0"
           id="path38"
           style="fill:#f1511b;fill-opacity:1;fill-rule:nonzero;stroke:none"
           d="m 0,0 c 0,-1.232 0,-1.848 0.056,-2.632 0.224,-2.856 1.456,-3.584 5.432,-3.08 l 0,-2.576 c -1.176,-0.224 -2.408,-0.28 -3.584,-0.28 -3.304,0 -5.04,1.456 -5.32,4.704 -0.056,1.008 -0.056,2.128 -0.056,3.808 l 0,18.648 -3.808,0 0,2.688 3.808,0 0,6.552 3.472,0 0,-6.552 5.656,0 0,-2.688 L 0,18.592 0,0 Z" /></g><g
         transform="translate(145.644,367.633)"
         id="g40"><path
           inkscape:connector-curvature="0"
           id="path42"
           style="fill:#f1511b;fill-opacity:1;fill-rule:nonzero;stroke:none"
           d="m 0,0 0,3.416 c -8.344,0.56 -15.232,-1.4 -15.232,-7.112 0,-3.752 2.352,-5.768 6.664,-5.768 C -3.416,-9.464 0,-5.544 0,0 M 0.056,-6.048 -1.4,-9.184 c -2.072,-2.072 -4.984,-3.024 -8.232,-3.024 -5.488,0 -9.408,2.856 -9.408,8.232 0,6.776 6.44,10.08 17.136,10.08 l 1.904,0 0,1.064 c 0,1.344 0,2.464 -0.112,3.64 -0.28,3.416 -2.352,5.376 -6.608,5.376 -4.088,0 -7,-2.184 -7.448,-6.776 l -3.64,0 c 0.392,5.824 4.816,9.576 11.088,9.576 6.552,0 9.632,-2.968 10.08,-7.84 0.112,-1.288 0.112,-2.52 0.112,-3.92 l 0,-10.36 c 0,-2.632 0.168,-4.76 0.56,-8.288 l -3.472,0 -0.504,5.376 z" /></g><g
         transform="translate(161.1001,364.3293)"
         id="g44"><path
           inkscape:connector-curvature="0"
           id="path46"
           style="fill:#4f4c4d;fill-opacity:1;fill-rule:nonzero;stroke:none"
           d="m 0,0 c 0,-1.232 0,-1.848 0.056,-2.632 0.224,-2.856 1.456,-3.584 5.432,-3.08 l 0,-2.576 c -1.176,-0.224 -2.408,-0.28 -3.584,-0.28 -3.304,0 -5.04,1.456 -5.32,4.704 -0.056,1.008 -0.056,2.128 -0.056,3.808 l 0,18.648 -3.808,0 0,2.688 3.808,0 0,6.552 3.472,0 0,-6.552 5.656,0 0,-2.688 L 0,18.592 0,0 Z" /></g><g
         transform="translate(188.9321,367.633)"
         id="g48"><path
           inkscape:connector-curvature="0"
           id="path50"
           style="fill:#4f4c4d;fill-opacity:1;fill-rule:nonzero;stroke:none"
           d="m 0,0 0,3.416 c -8.344,0.56 -15.232,-1.4 -15.232,-7.112 0,-3.752 2.352,-5.768 6.664,-5.768 C -3.416,-9.464 0,-5.544 0,0 M 0.056,-6.048 -1.4,-9.184 c -2.072,-2.072 -4.984,-3.024 -8.232,-3.024 -5.488,0 -9.408,2.856 -9.408,8.232 0,6.776 6.44,10.08 17.136,10.08 l 1.904,0 0,1.064 c 0,1.344 0,2.464 -0.112,3.64 -0.28,3.416 -2.352,5.376 -6.608,5.376 -4.088,0 -7,-2.184 -7.448,-6.776 l -3.64,0 c 0.392,5.824 4.816,9.576 11.088,9.576 6.552,0 9.632,-2.968 10.08,-7.84 0.112,-1.288 0.112,-2.52 0.112,-3.92 l 0,-10.36 c 0,-2.632 0.168,-4.76 0.56,-8.288 l -3.472,0 -0.504,5.376 z" /></g><g
         transform="translate(211.8359,356.2092)"
         id="g52"><path
           inkscape:connector-curvature="0"
           id="path54"
           style="fill:#4f4c4d;fill-opacity:1;fill-rule:nonzero;stroke:none"
           d="m 0,0 -4.312,0 -11.368,29.624 3.808,0 9.856,-27.048 9.744,27.048 3.696,0 L 0,0 Z" /></g><g
         transform="translate(250.4194,356.2092)"
         id="g56"><path
           inkscape:connector-curvature="0"
           id="path58"
           style="fill:#4f4c4d;fill-opacity:1;fill-rule:nonzero;stroke:none"
           d="m 0,0 -3.472,0 0,5.712 -1.624,-3.304 c -2.352,-2.296 -5.04,-3.192 -8.288,-3.192 -6.048,0 -9.632,3.416 -10.304,8.12 -0.168,1.512 -0.224,2.576 -0.224,4.984 l 0,17.304 3.472,0 0,-16.52 c 0,-1.4 0.056,-2.912 0.224,-4.424 0.448,-3.92 3.024,-6.664 7.616,-6.664 4.928,0 9.128,3.584 9.128,12.88 l 0,14.728 3.472,0 L 0,0 Z" /></g></g></g></svg>