<?xml version="1.0" encoding="UTF-8" standalone="no"?>
<svg
   xmlns:dc="http://purl.org/dc/elements/1.1/"
   xmlns:cc="http://creativecommons.org/ns#"
   xmlns:rdf="http://www.w3.org/1999/02/22-rdf-syntax-ns#"
   xmlns:svg="http://www.w3.org/2000/svg"
   xmlns="http://www.w3.org/2000/svg"
   viewBox="0 0 505.55323 191.71449"
   height="191.71449"
   width="505.55325"
   xml:space="preserve"
   version="1.1"
   id="svg3214"><metadata
     id="metadata3220"><rdf:RDF><cc:Work
         rdf:about=""><dc:format>image/svg+xml</dc:format><dc:type
           rdf:resource="http://purl.org/dc/dcmitype/StillImage" /><dc:title></dc:title></cc:Work></rdf:RDF></metadata><defs
     id="defs3218"><clipPath
       id="clipPath3228"
       clipPathUnits="userSpaceOnUse"><path
         id="path3230"
         d="m 0,595.28 841.89,0 L 841.89,0 0,0 0,595.28 Z" /></clipPath></defs><g
     transform="matrix(1.25,0,0,-1.25,-273.40387,467.90825)"
     id="g3222"><g
       style="fill:#ffffff"
       id="g3224"><g
         style="fill:#ffffff"
         clip-path="url(#clipPath3228)"
         id="g3226"><g
           style="fill:#ffffff"
           transform="translate(257.5771,277.25)"
           id="g3232"><path
             id="path3234"
             style="fill:#ffffff;fill-opacity:1;fill-rule:nonzero;stroke:none"
             d="m 0,0 c 1.018,1.02 1.625,2.445 1.625,3.813 0,2.554 -2.233,4.71 -4.877,4.71 -1.48,0 -2.786,-0.556 -4.132,-1.779 l -21.24,-20.738 0,17.326 c 0,2.643 -2.232,4.875 -4.876,4.875 l -0.486,0 c -2.639,0 -4.868,-2.232 -4.868,-4.875 l 0,-59.564 10.23,0 0,22.839 L -6.678,-56.232 7.474,-56.234 -24.222,-23.5 0,0 Z" /></g><g
           style="fill:#ffffff"
           transform="translate(539.3047,285.7324)"
           id="g3236"><path
             id="path3238"
             style="fill:#ffffff;fill-opacity:1;fill-rule:nonzero;stroke:none"
             d="m 0,0 c -1.391,0 -2.643,-0.582 -3.625,-1.682 -0.955,-1.06 -1.443,-2.283 -1.443,-3.64 l 0.072,-39.639 -29.402,42.699 C -35.422,-0.781 -36.91,0 -38.699,0 c -1.426,0 -2.705,-0.535 -3.69,-1.541 -1.021,-1.023 -1.541,-2.262 -1.541,-3.684 l 0,-59.535 10.305,0 0,45.063 29.414,-42.795 c 1.016,-1.483 2.498,-2.268 4.293,-2.268 1.42,0 2.65,0.508 3.645,1.504 0.998,0.979 1.505,2.207 1.505,3.647 l 0,54.291 c 0,1.408 -0.49,2.656 -1.461,3.709 C 2.785,-0.557 1.479,0 0,0" /></g><g
           style="fill:#ffffff"
           transform="translate(597.4316,277.2109)"
           id="g3240"><path
             id="path3242"
             style="fill:#ffffff;fill-opacity:1;fill-rule:nonzero;stroke:none"
             d="m 0,0 c 1.012,1.031 1.615,2.455 1.615,3.811 0,2.554 -2.23,4.71 -4.877,4.71 -1.482,0 -2.787,-0.556 -4.133,-1.781 l -21.242,-20.738 0,17.326 c 0,2.645 -2.234,4.877 -4.881,4.877 l -0.464,0 c -2.647,0 -4.879,-2.232 -4.879,-4.877 l 0,-59.564 10.224,0 0,22.843 21.961,-22.843 14.141,-0.002 -31.697,32.736 L 0,0 Z" /></g><g
           style="fill:#ffffff"
           transform="translate(618.4277,285.7324)"
           id="g3244"><path
             id="path3246"
             style="fill:#ffffff;fill-opacity:1;fill-rule:nonzero;stroke:none"
             d="m 0,0 -0.799,0 c -2.609,0 -4.73,-2.195 -4.73,-4.895 l 0,-59.865 10.267,0 0,59.865 C 4.738,-2.195 2.613,0 0,0" /></g><g
           style="fill:#ffffff"
           transform="translate(283.1528,267.3125)"
           id="g3248"><path
             id="path3250"
             style="fill:#ffffff;fill-opacity:1;fill-rule:nonzero;stroke:none"
             d="m 0,0 c 0,7.248 1.227,8.523 8.205,8.523 l 5.47,0 c 6.991,0 8.221,-1.275 8.221,-8.523 l 0,-9.072 L 0,-9.072 0,0 Z m 13.675,18.42 -5.47,0 C -4.481,18.42 -10.14,12.738 -10.14,0 l 0,-41.486 c 0,-2.67 2.1,-4.842 4.682,-4.842 l 0.775,0 c 2.584,0 4.683,2.172 4.683,4.842 l 0,22.351 21.896,0 0,-27.205 10.139,0.016 0,46.324 c 0,12.738 -5.663,18.42 -18.36,18.42" /></g><g
           style="fill:#ffffff"
           transform="translate(398.6323,276.0059)"
           id="g3252"><path
             id="path3254"
             style="fill:#ffffff;fill-opacity:1;fill-rule:nonzero;stroke:none"
             d="m 0,0 c 1.578,0.049 3.313,0.072 5.069,0.072 11.924,0 14.259,-3.414 14.259,-9.312 l 0,-1.305 c 0,-6.435 -2.335,-10.16 -14.259,-10.16 -1.433,0 -3.239,0.045 -5.069,0.127 L 0,0 Z M 5.069,9.727 C 2.542,9.727 -1.09,9.594 -5.774,9.326 -8.124,9.059 -10.037,6.922 -10.037,4.561 l 0,-59.594 10.037,0 0,24.781 c 1.86,-0.082 3.528,-0.119 5.069,-0.119 16.125,0 24.299,6.67 24.299,19.826 l 0,1.305 c 0,12.584 -8.174,18.967 -24.299,18.967" /></g><g
           style="fill:#ffffff"
           transform="translate(371.5132,285.752)"
           id="g3256"><path
             id="path3258"
             style="fill:#ffffff;fill-opacity:1;fill-rule:nonzero;stroke:none"
             d="m 0,0 -4.511,0 c -1.906,0 -3.043,-1.631 -3.043,-3.213 l 0,-51.496 c -2.883,-0.176 -7.825,-0.391 -10.592,-0.391 -9.363,0 -13.544,2.252 -13.544,15.598 l 0,36.289 C -31.69,-1.41 -32.992,0 -34.653,0 l -4.591,0 c -1.906,0 -3.044,-1.631 -3.044,-3.213 l 0,-36.289 c 0,-17.73 7.169,-25.295 23.976,-25.295 4.53,0 13.448,0.356 17.723,1 2.183,0.328 3.635,1.164 3.635,4.176 l 0,56.408 C 3.046,-1.41 1.71,0 0,0" /></g><g
           style="fill:#ffffff"
           transform="translate(478.2949,285.752)"
           id="g3260"><path
             id="path3262"
             style="fill:#ffffff;fill-opacity:1;fill-rule:nonzero;stroke:none"
             d="m 0,0 -4.512,0 c -1.906,0 -3.043,-1.631 -3.043,-3.213 l 0,-51.496 c -2.683,-0.164 -7.609,-0.391 -10.591,-0.391 -9.364,0 -13.542,2.252 -13.542,15.598 l 0,36.289 C -31.688,-1.41 -32.99,0 -34.652,0 l -4.594,0 c -1.906,0 -3.045,-1.631 -3.045,-3.213 l 0,-36.289 c 0,-17.73 7.17,-25.295 23.98,-25.295 4.53,0 13.446,0.356 17.721,1 2.182,0.328 3.639,1.164 3.639,4.176 l 0,56.408 C 3.049,-1.41 1.709,0 0,0" /></g><g
           style="fill:#ffffff"
           transform="translate(616.3418,374.3262)"
           id="g3264"><path
             id="path3266"
             style="fill:#ffffff;fill-opacity:1;fill-rule:nonzero;stroke:none"
             d="m 0,0 c -1.441,0 -2.689,-0.578 -3.717,-1.721 -0.971,-1.09 -1.465,-2.338 -1.465,-3.717 L -5.111,-45.949 -35.16,-2.322 C -36.193,-0.803 -37.711,0 -39.555,0 c -1.455,0 -2.756,-0.545 -3.752,-1.563 -1.054,-1.035 -1.589,-2.306 -1.589,-3.777 l 0,-60.838 10.521,0 0,46.051 30.068,-43.734 c 1.039,-1.516 2.557,-2.317 4.389,-2.317 1.428,0 2.715,0.532 3.723,1.532 1.017,1.003 1.537,2.259 1.537,3.73 l 0,55.48 c 0,1.444 -0.502,2.719 -1.494,3.793 C 2.836,-0.568 1.504,0 0,0" /></g><g
           style="fill:#ffffff"
           transform="translate(526.2109,318.418)"
           id="g3268"><path
             id="path3270"
             style="fill:#ffffff;fill-opacity:1;fill-rule:nonzero;stroke:none"
             d="m 0,0 -18.162,0 c -2.631,0 -2.631,0 -2.631,2.148 l 0,48.745 c 0,2.763 -2.18,5.015 -4.859,5.015 l -0.793,0 c -2.676,0 -4.856,-2.252 -4.856,-5.015 l 0,-48.745 c 0,-8.007 4.664,-12.418 13.139,-12.418 l 18.162,0 c 2.857,0 5.018,2.088 5.018,4.856 l 0,0.637 C 5.018,-2.053 2.857,0 0,0" /></g><g
           style="fill:#ffffff"
           transform="translate(279.6924,367.3984)"
           id="g3272"><path
             id="path3274"
             style="fill:#ffffff;fill-opacity:1;fill-rule:nonzero;stroke:none"
             d="m 0,0 c -0.298,1.826 -1.169,3.301 -2.595,4.387 -1.374,1.035 -2.969,1.558 -4.743,1.558 -1.831,0 -3.359,-0.539 -4.549,-1.605 -1.11,-0.996 -1.914,-2.299 -2.398,-3.887 L -25.943,-39.176 -37.529,0.477 c -0.496,1.589 -1.321,2.9 -2.457,3.884 -1.213,1.051 -2.751,1.584 -4.573,1.584 -1.783,0 -3.371,-0.529 -4.72,-1.574 -1.37,-1.07 -2.246,-2.525 -2.61,-4.359 l -8.915,-52.772 c -0.081,-0.398 -0.119,-0.904 -0.119,-1.592 0,-1.476 0.539,-2.746 1.565,-3.677 0.99,-0.901 2.225,-1.356 3.668,-1.356 1.509,0 2.767,0.463 3.735,1.381 0.915,0.869 1.497,2.008 1.737,3.402 l 6.281,41.969 13.887,-46.752 8.231,0 13.933,46.733 6.88,-46.733 10.918,0 L 0,0 Z" /></g><g
           style="fill:#ffffff"
           transform="translate(309.8398,373.3438)"
           id="g3276"><path
             id="path3278"
             style="fill:#ffffff;fill-opacity:1;fill-rule:nonzero;stroke:none"
             d="m 0,0 -0.8,0 c -2.676,0 -4.852,-2.25 -4.852,-5.012 l 0,-60.318 10.5,0 0,60.318 C 4.848,-2.25 2.67,0 0,0" /></g><g
           style="fill:#ffffff"
           transform="translate(344.2007,341.0254)"
           id="g3280"><path
             id="path3282"
             style="fill:#ffffff;fill-opacity:1;fill-rule:nonzero;stroke:none"
             d="m 0,0 24.314,23.592 c 1.036,1.037 1.651,2.492 1.651,3.89 0,2.622 -2.285,4.836 -4.99,4.836 -1.496,0 -2.824,-0.568 -4.212,-1.816 L -4.458,9.775 l 0,17.227 c 0,2.711 -2.289,4.996 -4.999,4.996 l -0.481,0 c -2.707,0 -4.992,-2.285 -4.992,-4.996 l 0,-60.014 10.472,0 0,22.854 21.961,-22.854 14.469,0 L 0,0 Z" /></g><g
           style="fill:#ffffff"
           transform="translate(399.3628,341.0566)"
           id="g3284"><path
             id="path3286"
             style="fill:#ffffff;fill-opacity:1;fill-rule:nonzero;stroke:none"
             d="m 0,0 24.321,23.598 c 1.031,1.039 1.644,2.494 1.644,3.884 0,2.62 -2.285,4.834 -4.991,4.834 -1.497,0 -2.825,-0.564 -4.21,-1.812 L -4.463,9.779 l 0,17.225 c 0,2.707 -2.286,4.996 -4.993,4.996 l -0.482,0 c -2.704,0 -4.99,-2.289 -4.99,-4.996 l 0,-60.014 10.465,0 0,22.854 L 17.498,-33.01 31.975,-33.012 0,0 Z" /></g><g
           style="fill:#ffffff"
           transform="translate(454.5723,364.0566)"
           id="g3288"><path
             id="path3290"
             style="fill:#ffffff;fill-opacity:1;fill-rule:nonzero;stroke:none"
             d="m 0,0 20.549,0 c 2.861,0 5.014,2.053 5.014,4.773 l 0,0.635 c 0,2.774 -2.153,4.862 -5.014,4.862 L 0,10.27 c -8.471,0 -13.137,-4.413 -13.137,-12.426 l 0,-41.334 c 0,-8.008 4.666,-12.418 13.137,-12.418 l 20.549,0 c 2.861,0 5.014,2.088 5.014,4.853 l 0,0.639 c 0,2.725 -2.153,4.777 -5.014,4.777 l -20.549,0 c -2.631,0 -2.631,0 -2.631,2.149 l 0,16.258 23.117,0 0,8.892 -23.117,0 0,16.184 C -2.631,0 -2.631,0 0,0" /></g><g
           style="fill:#ffffff"
           transform="translate(551.7246,374.3262)"
           id="g3292"><path
             id="path3294"
             style="fill:#ffffff;fill-opacity:1;fill-rule:nonzero;stroke:none"
             d="m 0,0 -0.811,0 c -2.71,0 -4.912,-2.277 -4.912,-5.078 l 0,-61.1 10.641,0 0,61.1 C 4.918,-2.277 2.713,0 0,0" /></g></g></g></g></svg>