<?xml version="1.0" encoding="UTF-8" standalone="no"?>
<svg
   xmlns:dc="http://purl.org/dc/elements/1.1/"
   xmlns:cc="http://creativecommons.org/ns#"
   xmlns:rdf="http://www.w3.org/1999/02/22-rdf-syntax-ns#"
   xmlns:svg="http://www.w3.org/2000/svg"
   xmlns="http://www.w3.org/2000/svg"
   viewBox="0 0 795.66372 108.63113"
   height="108.63113"
   width="795.66376"
   xml:space="preserve"
   version="1.1"
   id="svg2"><metadata
     id="metadata8"><rdf:RDF><cc:Work
         rdf:about=""><dc:format>image/svg+xml</dc:format><dc:type
           rdf:resource="http://purl.org/dc/dcmitype/StillImage" /><dc:title></dc:title></cc:Work></rdf:RDF></metadata><defs
     id="defs6"><clipPath
       id="clipPath16"
       clipPathUnits="userSpaceOnUse"><path
         id="path18"
         d="m 0,595.28 841.89,0 L 841.89,0 0,0 0,595.28 Z" /></clipPath><clipPath
       id="clipPath64"
       clipPathUnits="userSpaceOnUse"><path
         id="path66"
         d="m 131.066,382.045 0,-23.439 6.697,-6.697 2.232,2.232 0,31.252 c -0.744,2.975 -2.606,4.835 -5.581,5.58 l 0,0 -3.348,-8.928 z m 0,-39.065 0,-23.44 3.348,-8.928 c 2.975,0.742 4.837,2.603 5.581,5.581 l 0,0 0,31.251 -2.232,2.233 -6.697,-6.697 z m -37.948,4.464 0,-29.02 8.929,3.348 0,21.208 -6.697,6.697 -2.232,-2.233 z m 8.929,-27.904 -8.929,-3.347 c 0.742,-2.978 2.603,-4.839 5.58,-5.581 l 0,0 33.484,0 -3.348,8.928 -26.787,0 z" /></clipPath><linearGradient
       id="linearGradient72"
       spreadMethod="pad"
       gradientTransform="matrix(46.877502,0,0,-46.877502,93.11763,350.79272)"
       gradientUnits="userSpaceOnUse"
       y2="0"
       x2="1"
       y1="0"
       x1="0"><stop
         id="stop74"
         offset="0"
         style="stop-opacity:1;stop-color:#fff424" /><stop
         id="stop76"
         offset="0.13312686"
         style="stop-opacity:1;stop-color:#fac308" /><stop
         id="stop78"
         offset="0.280899"
         style="stop-opacity:1;stop-color:#fac308" /><stop
         id="stop80"
         offset="0.668539"
         style="stop-opacity:1;stop-color:#f3812f" /><stop
         id="stop82"
         offset="0.88764"
         style="stop-opacity:1;stop-color:#ee5233" /><stop
         id="stop84"
         offset="1"
         style="stop-opacity:1;stop-color:#ea2c35" /></linearGradient><clipPath
       id="clipPath92"
       clipPathUnits="userSpaceOnUse"><path
         id="path94"
         d="m 162.317,390.973 -4.464,-4.464 4.464,-4.464 24.554,0 4.465,4.464 -4.465,4.464 -24.554,0 z m 26.787,-8.928 0,-23.439 6.696,-6.697 2.233,2.232 0,25.672 -5.581,5.58 -3.348,-3.348 z m -37.948,-2.232 0,-25.672 2.232,-2.232 6.697,6.697 0,23.439 -3.349,3.348 -5.58,-5.58 z m 37.948,-36.833 0,-23.44 3.348,-3.347 5.581,5.579 0,25.672 -2.233,2.233 -6.696,-6.697 z m -37.948,4.464 0,-25.672 5.58,-5.579 3.349,3.347 0,23.44 -6.697,6.697 -2.232,-2.233 z m 11.161,-27.904 -4.464,-4.463 4.464,-4.465 24.554,0 4.465,4.465 -4.465,4.463 -24.554,0 z" /></clipPath><linearGradient
       id="linearGradient100"
       spreadMethod="pad"
       gradientTransform="matrix(46.877502,0,0,-46.877502,151.15561,350.79272)"
       gradientUnits="userSpaceOnUse"
       y2="0"
       x2="1"
       y1="0"
       x1="0"><stop
         id="stop102"
         offset="0"
         style="stop-opacity:1;stop-color:#fff424" /><stop
         id="stop104"
         offset="0.13312686"
         style="stop-opacity:1;stop-color:#fac308" /><stop
         id="stop106"
         offset="0.280899"
         style="stop-opacity:1;stop-color:#fac308" /><stop
         id="stop108"
         offset="0.668539"
         style="stop-opacity:1;stop-color:#f3812f" /><stop
         id="stop110"
         offset="0.88764"
         style="stop-opacity:1;stop-color:#ee5233" /><stop
         id="stop112"
         offset="1"
         style="stop-opacity:1;stop-color:#ea2c35" /></linearGradient><clipPath
       id="clipPath120"
       clipPathUnits="userSpaceOnUse"><path
         id="path122"
         d="m 209.193,390.973 0,-5.58 8.929,-3.348 26.788,0 4.465,4.464 -4.465,4.464 -35.717,0 z m 37.949,-8.928 0,-23.439 6.697,-6.697 2.232,2.232 0,25.672 -5.581,5.58 -3.348,-3.348 z m -37.949,-27.904 2.233,-2.232 6.696,6.697 0,21.207 -8.929,3.348 0,-29.02 z m 8.929,1.116 -4.464,-4.465 4.464,-4.464 29.02,0 4.465,4.464 -4.465,4.465 -29.02,0 z m 29.02,-12.277 0,-23.44 3.348,-3.347 5.581,5.579 0,25.672 -2.232,2.233 -6.697,-6.697 z m -37.949,4.464 0,-29.02 8.929,3.348 0,21.208 -6.696,6.697 -2.233,-2.233 z m 8.929,-27.904 -8.929,-3.347 0,-5.581 35.605,0 4.465,4.465 -4.465,4.463 -26.676,0 z" /></clipPath><linearGradient
       id="linearGradient128"
       spreadMethod="pad"
       gradientTransform="matrix(46.877502,0,0,-46.877502,209.19359,350.79272)"
       gradientUnits="userSpaceOnUse"
       y2="0"
       x2="1"
       y1="0"
       x1="0"><stop
         id="stop130"
         offset="0"
         style="stop-opacity:1;stop-color:#fff424" /><stop
         id="stop132"
         offset="0.13312686"
         style="stop-opacity:1;stop-color:#fac308" /><stop
         id="stop134"
         offset="0.280899"
         style="stop-opacity:1;stop-color:#fac308" /><stop
         id="stop136"
         offset="0.668539"
         style="stop-opacity:1;stop-color:#f3812f" /><stop
         id="stop138"
         offset="0.88764"
         style="stop-opacity:1;stop-color:#ee5233" /><stop
         id="stop140"
         offset="1"
         style="stop-opacity:1;stop-color:#ea2c35" /></linearGradient><clipPath
       id="clipPath148"
       clipPathUnits="userSpaceOnUse"><path
         id="path150"
         d="m 306.407,390.973 c -2.977,-0.745 -4.838,-2.605 -5.581,-5.58 l 0,0 8.93,-3.348 30.023,0 3.349,8.928 -36.721,0 z m -5.693,-36.832 2.233,-2.232 6.697,6.697 0,21.207 -8.93,3.348 0,-29.02 z m 27.904,1.116 -4.465,-4.465 4.465,-4.464 10.045,0 4.465,4.464 -4.465,4.465 -10.045,0 z m 10.045,-12.277 0,-23.44 3.348,-8.928 c 2.976,0.742 4.836,2.603 5.582,5.581 l 0,0 0,31.251 -2.233,2.233 -6.697,-6.697 z m -37.949,4.464 0,-29.02 8.93,3.348 0,21.208 -6.697,6.697 -2.233,-2.233 z m 8.93,-27.904 -8.93,-3.347 c 0.744,-2.978 2.604,-4.839 5.581,-5.581 l 0,0 33.484,0 -3.348,8.928 -26.787,0 z" /></clipPath><linearGradient
       id="linearGradient156"
       spreadMethod="pad"
       gradientTransform="matrix(46.877502,0,0,-46.877502,300.71466,350.79272)"
       gradientUnits="userSpaceOnUse"
       y2="0"
       x2="1"
       y1="0"
       x1="0"><stop
         id="stop158"
         offset="0"
         style="stop-opacity:1;stop-color:#fff424" /><stop
         id="stop160"
         offset="0.13312686"
         style="stop-opacity:1;stop-color:#fac308" /><stop
         id="stop162"
         offset="0.280899"
         style="stop-opacity:1;stop-color:#fac308" /><stop
         id="stop164"
         offset="0.668539"
         style="stop-opacity:1;stop-color:#f3812f" /><stop
         id="stop166"
         offset="0.88764"
         style="stop-opacity:1;stop-color:#ee5233" /><stop
         id="stop168"
         offset="1"
         style="stop-opacity:1;stop-color:#ea2c35" /></linearGradient><clipPath
       id="clipPath176"
       clipPathUnits="userSpaceOnUse"><path
         id="path178"
         d="m 396.701,382.045 0,-23.439 6.697,-6.697 2.232,2.232 0,31.252 c -0.744,2.975 -2.605,4.835 -5.581,5.58 l 0,0 -3.348,-8.928 z m -32.257,8.928 c -2.976,-0.745 -4.837,-2.605 -5.58,-5.58 l 0,0 8.929,-3.348 26.676,0 3.348,8.928 -33.373,0 z m -5.691,-36.832 2.232,-2.232 6.696,6.697 0,21.207 -8.928,3.348 0,-29.02 z m 8.928,1.116 -4.464,-4.465 4.464,-4.464 29.02,0 4.465,4.464 -4.465,4.465 -29.02,0 z m 29.02,-12.277 0,-23.44 3.348,-8.928 c 2.976,0.742 4.837,2.603 5.581,5.581 l 0,0 0,31.251 -2.232,2.233 -6.697,-6.697 z m -37.948,4.464 0,-31.251 c 0.742,-2.978 2.603,-4.839 5.58,-5.581 l 0,0 3.348,8.928 0,23.44 -6.696,6.697 -2.232,-2.233 z" /></clipPath><linearGradient
       id="linearGradient184"
       spreadMethod="pad"
       gradientTransform="matrix(46.877502,0,0,-46.877502,358.75265,350.79272)"
       gradientUnits="userSpaceOnUse"
       y2="0"
       x2="1"
       y1="0"
       x1="0"><stop
         id="stop186"
         offset="0"
         style="stop-opacity:1;stop-color:#fff424" /><stop
         id="stop188"
         offset="0.13312686"
         style="stop-opacity:1;stop-color:#fac308" /><stop
         id="stop190"
         offset="0.280899"
         style="stop-opacity:1;stop-color:#fac308" /><stop
         id="stop192"
         offset="0.668539"
         style="stop-opacity:1;stop-color:#f3812f" /><stop
         id="stop194"
         offset="0.88764"
         style="stop-opacity:1;stop-color:#ee5233" /><stop
         id="stop196"
         offset="1"
         style="stop-opacity:1;stop-color:#ea2c35" /></linearGradient><clipPath
       id="clipPath204"
       clipPathUnits="userSpaceOnUse"><path
         id="path206"
         d="m 454.739,382.045 0,-23.439 6.696,-6.697 2.233,2.232 0,31.252 c -0.744,2.975 -2.606,4.835 -5.58,5.58 l 0,0 -3.349,-8.928 z m -32.256,8.928 c -2.977,-0.745 -4.838,-2.605 -5.581,-5.58 l 0,0 8.929,-3.348 26.675,0 3.348,8.928 -33.371,0 z m -5.692,-36.832 2.232,-2.232 6.696,6.697 0,21.207 -8.928,3.348 0,-29.02 z m 18.975,25.672 0,-25.672 4.464,-4.464 4.464,4.464 0,25.672 -8.928,0 z m 18.973,-36.833 0,-23.44 3.349,-8.928 c 2.974,0.742 4.836,2.603 5.58,5.581 l 0,0 0,31.251 -2.233,2.233 -6.696,-6.697 z m -37.948,4.464 0,-31.251 c 0.742,-2.978 2.604,-4.839 5.581,-5.581 l 0,0 3.347,8.928 0,23.44 -6.696,6.697 -2.232,-2.233 z" /></clipPath><linearGradient
       id="linearGradient212"
       spreadMethod="pad"
       gradientTransform="matrix(46.877502,0,0,-46.877502,416.79062,350.79272)"
       gradientUnits="userSpaceOnUse"
       y2="0"
       x2="1"
       y1="0"
       x1="0"><stop
         id="stop214"
         offset="0"
         style="stop-opacity:1;stop-color:#fff424" /><stop
         id="stop216"
         offset="0.13312686"
         style="stop-opacity:1;stop-color:#fac308" /><stop
         id="stop218"
         offset="0.280899"
         style="stop-opacity:1;stop-color:#fac308" /><stop
         id="stop220"
         offset="0.668539"
         style="stop-opacity:1;stop-color:#f3812f" /><stop
         id="stop222"
         offset="0.88764"
         style="stop-opacity:1;stop-color:#ee5233" /><stop
         id="stop224"
         offset="1"
         style="stop-opacity:1;stop-color:#ea2c35" /></linearGradient><clipPath
       id="clipPath232"
       clipPathUnits="userSpaceOnUse"><path
         id="path234"
         d="m 480.52,390.973 c -2.978,-0.745 -4.839,-2.605 -5.582,-5.58 l 0,0 8.929,-3.348 30.024,0 3.349,8.928 -36.72,0 z m -5.693,-36.832 2.232,-2.232 6.696,6.697 0,21.207 -8.928,3.348 0,-29.02 z m 8.928,1.116 -4.465,-4.465 4.465,-4.464 29.02,0 4.465,4.464 -4.465,4.465 -29.02,0 z m -8.928,-7.813 0,-29.02 8.928,3.348 0,21.208 -6.696,6.697 -2.232,-2.233 z m 8.928,-27.904 -8.928,-3.347 c 0.742,-2.978 2.603,-4.839 5.581,-5.581 l 0,0 36.832,0 -3.349,8.928 -30.136,0 z" /></clipPath><linearGradient
       id="linearGradient240"
       spreadMethod="pad"
       gradientTransform="matrix(42.413811,0,0,-42.413811,474.82611,350.79272)"
       gradientUnits="userSpaceOnUse"
       y2="0"
       x2="1"
       y1="0"
       x1="0"><stop
         id="stop242"
         offset="0"
         style="stop-opacity:1;stop-color:#fff424" /><stop
         id="stop244"
         offset="0.13312686"
         style="stop-opacity:1;stop-color:#fac308" /><stop
         id="stop246"
         offset="0.280899"
         style="stop-opacity:1;stop-color:#fac308" /><stop
         id="stop248"
         offset="0.668539"
         style="stop-opacity:1;stop-color:#f3812f" /><stop
         id="stop250"
         offset="0.88764"
         style="stop-opacity:1;stop-color:#ee5233" /><stop
         id="stop252"
         offset="1"
         style="stop-opacity:1;stop-color:#ea2c35" /></linearGradient><clipPath
       id="clipPath260"
       clipPathUnits="userSpaceOnUse"><path
         id="path262"
         d="m 599.833,382.045 0,-23.439 6.696,-6.697 2.233,2.232 0,31.252 c -0.745,2.975 -2.607,4.835 -5.58,5.58 l 0,0 -3.349,-8.928 z m 0,-39.065 0,-23.44 3.349,-8.928 c 2.973,0.742 4.835,2.603 5.58,5.581 l 0,0 0,31.251 -2.233,2.233 -6.696,-6.697 z m -37.95,4.464 0,-29.02 8.929,3.348 0,21.208 -6.696,6.697 -2.233,-2.233 z m 8.929,-27.904 -8.929,-3.347 c 0.743,-2.978 2.605,-4.839 5.582,-5.581 l 0,0 33.484,0 -3.349,8.928 -26.788,0 z" /></clipPath><linearGradient
       id="linearGradient268"
       spreadMethod="pad"
       gradientTransform="matrix(46.878334,0,0,-46.878334,561.88348,350.79272)"
       gradientUnits="userSpaceOnUse"
       y2="0"
       x2="1"
       y1="0"
       x1="0"><stop
         id="stop270"
         offset="0"
         style="stop-opacity:1;stop-color:#fff424" /><stop
         id="stop272"
         offset="0.13312686"
         style="stop-opacity:1;stop-color:#fac308" /><stop
         id="stop274"
         offset="0.280899"
         style="stop-opacity:1;stop-color:#fac308" /><stop
         id="stop276"
         offset="0.668539"
         style="stop-opacity:1;stop-color:#f3812f" /><stop
         id="stop278"
         offset="0.88764"
         style="stop-opacity:1;stop-color:#ee5233" /><stop
         id="stop280"
         offset="1"
         style="stop-opacity:1;stop-color:#ea2c35" /></linearGradient><clipPath
       id="clipPath288"
       clipPathUnits="userSpaceOnUse"><path
         id="path290"
         d="m 657.871,382.045 0,-23.439 6.696,-6.697 2.234,2.232 0,31.252 c -0.744,2.975 -2.606,4.835 -5.581,5.58 l 0,0 -3.349,-8.928 z m -32.255,8.928 c -2.978,-0.745 -4.839,-2.605 -5.582,-5.58 l 0,0 8.929,-3.348 26.675,0 3.349,8.928 -33.371,0 z m -5.693,-36.832 2.233,-2.232 6.696,6.697 0,21.207 -8.929,3.348 0,-29.02 z m 8.929,1.116 -4.465,-4.465 4.465,-4.464 29.019,0 4.465,4.464 -4.465,4.465 -29.019,0 z m 29.019,-12.277 0,-23.44 3.349,-8.928 c 2.975,0.742 4.837,2.603 5.581,5.581 l 0,0 0,31.251 -2.234,2.233 -6.696,-6.697 z m -37.948,4.464 0,-31.251 c 0.742,-2.978 2.603,-4.839 5.581,-5.581 l 0,0 3.348,8.928 0,23.44 -6.696,6.697 -2.233,-2.233 z" /></clipPath><linearGradient
       id="linearGradient296"
       spreadMethod="pad"
       gradientTransform="matrix(46.878334,0,0,-46.878334,619.9223,350.79272)"
       gradientUnits="userSpaceOnUse"
       y2="0"
       x2="1"
       y1="0"
       x1="0"><stop
         id="stop298"
         offset="0"
         style="stop-opacity:1;stop-color:#fff424" /><stop
         id="stop300"
         offset="0.13312686"
         style="stop-opacity:1;stop-color:#fac308" /><stop
         id="stop302"
         offset="0.280899"
         style="stop-opacity:1;stop-color:#fac308" /><stop
         id="stop304"
         offset="0.668539"
         style="stop-opacity:1;stop-color:#f3812f" /><stop
         id="stop306"
         offset="0.88764"
         style="stop-opacity:1;stop-color:#ee5233" /><stop
         id="stop308"
         offset="1"
         style="stop-opacity:1;stop-color:#ea2c35" /></linearGradient><clipPath
       id="clipPath316"
       clipPathUnits="userSpaceOnUse"><path
         id="path318"
         d="m 715.909,382.045 0,-23.439 6.696,-6.697 2.232,2.232 0,31.252 c -0.744,2.975 -2.605,4.835 -5.579,5.58 l 0,0 -3.349,-8.928 z m -32.256,8.928 c -2.978,-0.745 -4.84,-2.605 -5.582,-5.58 l 0,0 8.929,-3.348 26.676,0 3.349,8.928 -33.372,0 z m -5.694,-36.832 2.233,-2.232 6.696,6.697 0,21.207 -8.929,3.348 0,-29.02 z m 18.976,25.672 0,-25.672 4.465,-4.464 4.464,4.464 0,25.672 -8.929,0 z m 18.974,-36.833 0,-23.44 3.349,-8.928 c 2.974,0.742 4.835,2.603 5.579,5.581 l 0,0 0,31.251 -2.232,2.233 -6.696,-6.697 z m -37.95,4.464 0,-31.251 c 0.743,-2.978 2.605,-4.839 5.582,-5.581 l 0,0 3.347,8.928 0,23.44 -6.696,6.697 -2.233,-2.233 z" /></clipPath><linearGradient
       id="linearGradient324"
       spreadMethod="pad"
       gradientTransform="matrix(46.878334,0,0,-46.878334,677.95947,350.79272)"
       gradientUnits="userSpaceOnUse"
       y2="0"
       x2="1"
       y1="0"
       x1="0"><stop
         id="stop326"
         offset="0"
         style="stop-opacity:1;stop-color:#fff424" /><stop
         id="stop328"
         offset="0.13312686"
         style="stop-opacity:1;stop-color:#fac308" /><stop
         id="stop330"
         offset="0.280899"
         style="stop-opacity:1;stop-color:#fac308" /><stop
         id="stop332"
         offset="0.668539"
         style="stop-opacity:1;stop-color:#f3812f" /><stop
         id="stop334"
         offset="0.88764"
         style="stop-opacity:1;stop-color:#ee5233" /><stop
         id="stop336"
         offset="1"
         style="stop-opacity:1;stop-color:#ea2c35" /></linearGradient></defs><g
     transform="matrix(1.25,0,0,-1.25,-116.3975,488.71625)"
     id="g10"><g
       id="g12"><g
         clip-path="url(#clipPath16)"
         id="g14"><g
           transform="translate(142.5718,343.1335)"
           id="g20"><path
             id="path22"
             style="fill:#231f20;fill-opacity:1;fill-rule:nonzero;stroke:none"
             d="m 0,0 2.232,-2.232 0,-31.252 c -0.744,-2.977 -2.605,-4.838 -5.58,-5.581 l -3.349,8.929 0,23.439 L 0,0 Z m -6.697,8.929 0,23.439 3.349,8.929 c 2.975,-0.745 4.836,-2.606 5.58,-5.581 L 2.232,4.464 0,2.232 -6.697,8.929 Z m 1.116,-47.994 -33.483,0 c -2.978,0.743 -4.838,2.604 -5.582,5.581 l 8.93,3.348 26.787,0 3.348,-8.929 z m -39.065,7.813 0,29.02 2.233,2.232 6.697,-6.697 0,-21.206 -8.93,-3.349 z" /></g><g
           transform="translate(200.6099,343.1335)"
           id="g24"><path
             id="path26"
             style="fill:#231f20;fill-opacity:1;fill-rule:nonzero;stroke:none"
             d="m 0,0 2.232,-2.232 0,-25.671 -5.58,-5.581 -3.349,3.348 0,23.439 L 0,0 Z m -6.697,8.929 0,23.439 3.349,3.348 5.58,-5.58 0,-25.672 L 0,2.232 -6.697,8.929 Z m 2.233,-43.53 -4.465,-4.464 -24.555,0 -4.465,4.464 4.465,4.465 24.555,0 4.465,-4.465 z m -4.465,66.969 -24.555,0 -4.465,4.465 4.465,4.464 24.555,0 4.465,-4.464 -4.465,-4.465 z m -26.787,-39.065 0,-23.439 -3.348,-3.348 -5.582,5.581 0,25.671 2.233,2.232 6.697,-6.697 z m -6.697,8.929 -2.233,2.232 0,25.672 5.582,5.58 3.348,-3.348 0,-23.439 -6.697,-6.697 z" /></g><g
           transform="translate(258.6479,343.1335)"
           id="g28"><path
             id="path30"
             style="fill:#231f20;fill-opacity:1;fill-rule:nonzero;stroke:none"
             d="m 0,0 2.232,-2.232 0,-25.671 -5.58,-5.581 -3.349,3.348 0,23.439 L 0,0 Z m -6.697,8.929 0,23.439 3.349,3.348 5.58,-5.58 0,-25.672 L 0,2.232 -6.697,8.929 Z m 0,-3.348 4.465,-4.465 -4.465,-4.465 -29.019,0 -4.465,4.465 4.465,4.465 29.019,0 z m 2.121,-40.182 -4.465,-4.464 -35.605,0 0,5.581 8.93,3.348 26.675,0 4.465,-4.465 z m -40.07,3.349 0,29.02 2.233,2.232 6.697,-6.697 0,-21.206 -8.93,-3.349 z m 8.93,61.388 0,-21.207 -6.697,-6.697 -2.233,2.232 0,29.02 8.93,-3.348 z m 26.787,2.232 -26.787,0 -8.93,3.348 0,5.581 35.717,0 4.465,-4.464 -4.465,-4.465 z" /></g><g
           transform="translate(350.1694,343.1335)"
           id="g32"><path
             id="path34"
             style="fill:#231f20;fill-opacity:1;fill-rule:nonzero;stroke:none"
             d="m 0,0 2.232,-2.232 0,-31.252 c -0.744,-2.977 -2.605,-4.838 -5.58,-5.581 l -3.349,8.929 0,23.439 L 0,0 Z m -6.697,5.581 4.465,-4.465 -4.465,-4.465 -10.045,0 -4.465,4.465 4.465,4.465 10.045,0 z m 1.116,26.787 -30.023,0 -8.93,3.348 c 0.743,2.975 2.604,4.836 5.581,5.581 l 36.721,0 -3.349,-8.929 z m 0,-71.433 -33.483,0 c -2.978,0.743 -4.838,2.604 -5.582,5.581 l 8.93,3.348 26.787,0 3.348,-8.929 z m -39.065,7.813 0,29.02 2.233,2.232 6.697,-6.697 0,-21.206 -8.93,-3.349 z m 8.93,61.388 0,-21.207 -6.697,-6.697 -2.233,2.232 0,29.02 8.93,-3.348 z" /></g><g
           transform="translate(408.2075,343.1335)"
           id="g36"><path
             id="path38"
             style="fill:#231f20;fill-opacity:1;fill-rule:nonzero;stroke:none"
             d="m 0,0 2.232,-2.232 0,-31.252 c -0.744,-2.977 -2.605,-4.838 -5.58,-5.581 l -3.349,8.929 0,23.439 L 0,0 Z m -6.697,8.929 0,23.439 3.349,8.929 c 2.975,-0.745 4.836,-2.606 5.58,-5.581 L 2.232,4.464 0,2.232 -6.697,8.929 Z m 0,-3.348 4.465,-4.465 -4.465,-4.465 -29.019,0 -4.465,4.465 4.465,4.465 29.019,0 z m -2.232,26.787 -26.675,0 -8.93,3.348 c 0.743,2.975 2.604,4.836 5.581,5.581 l 33.372,0 -3.348,-8.929 z m -26.787,-39.065 0,-23.439 -3.348,-8.929 c -2.978,0.743 -4.838,2.604 -5.582,5.581 l 0,31.252 2.233,2.232 6.697,-6.697 z m 0,36.833 0,-21.207 -6.697,-6.697 -2.233,2.232 0,29.02 8.93,-3.348 z" /></g><g
           transform="translate(466.2461,343.1335)"
           id="g40"><path
             id="path42"
             style="fill:#231f20;fill-opacity:1;fill-rule:nonzero;stroke:none"
             d="m 0,0 2.232,-2.232 0,-31.252 c -0.745,-2.977 -2.605,-4.838 -5.581,-5.581 l -3.348,8.929 0,23.439 L 0,0 Z m -6.697,8.929 0,23.439 3.348,8.929 c 2.976,-0.745 4.836,-2.606 5.581,-5.581 L 2.232,4.464 0,2.232 -6.697,8.929 Z M -16.742,4.464 -21.207,0 l -4.465,4.464 0,25.672 8.93,0 0,-25.672 z m 7.812,27.904 -26.675,0 -8.929,3.348 c 0.743,2.975 2.603,4.836 5.581,5.581 l 33.372,0 -3.349,-8.929 z m -26.787,-39.065 0,-23.439 -3.347,-8.929 c -2.978,0.743 -4.838,2.604 -5.582,5.581 l 0,31.252 2.232,2.232 6.697,-6.697 z m 0,36.833 0,-21.207 -6.697,-6.697 -2.232,2.232 0,29.02 8.929,-3.348 z" /></g><g
           transform="translate(517.5869,348.7141)"
           id="g44"><path
             id="path46"
             style="fill:#231f20;fill-opacity:1;fill-rule:nonzero;stroke:none"
             d="M 0,0 4.465,-4.464 0,-8.929 l -29.02,0 -4.464,4.465 L -29.02,0 0,0 Z m 1.116,26.788 -30.024,0 -8.929,3.348 c 0.743,2.975 2.604,4.836 5.581,5.58 l 36.721,0 -3.349,-8.928 z m 3.349,-71.434 -36.833,0 c -2.977,0.744 -4.838,2.604 -5.58,5.581 l 8.928,3.349 30.136,0 3.349,-8.93 z m -42.413,7.813 0,29.02 2.231,2.232 6.697,-6.696 0,-21.207 -8.928,-3.349 z m 8.928,61.388 0,-21.206 -6.697,-6.697 -2.231,2.232 0,29.019 8.928,-3.348 z" /></g><g
           transform="translate(611.3408,343.1335)"
           id="g48"><path
             id="path50"
             style="fill:#231f20;fill-opacity:1;fill-rule:nonzero;stroke:none"
             d="m 0,0 2.232,-2.232 0,-31.252 c -0.745,-2.977 -2.605,-4.838 -5.581,-5.581 l -3.348,8.929 0,23.439 L 0,0 Z m -6.697,8.929 0,23.439 3.348,8.929 c 2.976,-0.745 4.836,-2.606 5.581,-5.581 L 2.232,4.464 0,2.232 -6.697,8.929 Z m 1.116,-47.994 -33.484,0 c -2.977,0.743 -4.838,2.604 -5.581,5.581 l 8.929,3.348 26.787,0 3.349,-8.929 z m -39.065,7.813 0,29.02 2.232,2.232 6.697,-6.697 0,-21.206 -8.929,-3.349 z" /></g><g
           transform="translate(669.3789,343.1335)"
           id="g52"><path
             id="path54"
             style="fill:#231f20;fill-opacity:1;fill-rule:nonzero;stroke:none"
             d="m 0,0 2.232,-2.232 0,-31.252 c -0.745,-2.977 -2.605,-4.838 -5.581,-5.581 l -3.348,8.929 0,23.439 L 0,0 Z m -6.697,8.929 0,23.439 3.348,8.929 c 2.976,-0.745 4.836,-2.606 5.581,-5.581 L 2.232,4.464 0,2.232 -6.697,8.929 Z m 0,-3.348 4.465,-4.465 -4.465,-4.465 -29.02,0 -4.465,4.465 4.465,4.465 29.02,0 z m -2.233,26.787 -26.675,0 -8.929,3.348 c 0.743,2.975 2.603,4.836 5.581,5.581 l 33.372,0 -3.349,-8.929 z m -26.787,-39.065 0,-23.439 -3.348,-8.929 c -2.977,0.743 -4.838,2.604 -5.581,5.581 l 0,31.252 2.232,2.232 6.697,-6.697 z m 0,36.833 0,-21.207 -6.697,-6.697 -2.232,2.232 0,29.02 8.929,-3.348 z" /></g><g
           transform="translate(727.417,343.1335)"
           id="g56"><path
             id="path58"
             style="fill:#231f20;fill-opacity:1;fill-rule:nonzero;stroke:none"
             d="m 0,0 2.232,-2.232 0,-31.252 c -0.745,-2.977 -2.605,-4.838 -5.581,-5.581 l -3.348,8.929 0,23.439 L 0,0 Z m -6.697,8.929 0,23.439 3.348,8.929 c 2.976,-0.745 4.836,-2.606 5.581,-5.581 L 2.232,4.464 0,2.232 -6.697,8.929 Z M -16.742,4.464 -21.207,0 l -4.465,4.464 0,25.672 8.93,0 0,-25.672 z m 7.812,27.904 -26.675,0 -8.929,3.348 c 0.743,2.975 2.603,4.836 5.581,5.581 l 33.372,0 -3.349,-8.929 z m -26.787,-39.065 0,-23.439 -3.348,-8.929 c -2.977,0.743 -4.838,2.604 -5.581,5.581 l 0,31.252 2.232,2.232 6.697,-6.697 z m 0,36.833 0,-21.207 -6.697,-6.697 -2.232,2.232 0,29.02 8.929,-3.348 z" /></g></g></g><g
       id="g60"><g
         clip-path="url(#clipPath64)"
         id="g62"><g
           id="g68"><g
             id="g70"><path
               id="path86"
               style="fill:url(#linearGradient72);stroke:none"
               d="m 131.066,382.045 0,-23.439 6.697,-6.697 2.232,2.232 0,31.252 c -0.744,2.975 -2.606,4.835 -5.581,5.58 l 0,0 -3.348,-8.928 z m 0,-39.065 0,-23.44 3.348,-8.928 c 2.975,0.742 4.837,2.603 5.581,5.581 l 0,0 0,31.251 -2.232,2.233 -6.697,-6.697 z m -37.948,4.464 0,-29.02 8.929,3.348 0,21.208 -6.697,6.697 -2.232,-2.233 z m 8.929,-27.904 -8.929,-3.347 c 0.742,-2.978 2.603,-4.839 5.58,-5.581 l 0,0 33.484,0 -3.348,8.928 -26.787,0 z" /></g></g></g></g><g
       id="g88"><g
         clip-path="url(#clipPath92)"
         id="g90"><g
           id="g96"><g
             id="g98"><path
               id="path114"
               style="fill:url(#linearGradient100);stroke:none"
               d="m 162.317,390.973 -4.464,-4.464 4.464,-4.464 24.554,0 4.465,4.464 -4.465,4.464 -24.554,0 z m 26.787,-8.928 0,-23.439 6.696,-6.697 2.233,2.232 0,25.672 -5.581,5.58 -3.348,-3.348 z m -37.948,-2.232 0,-25.672 2.232,-2.232 6.697,6.697 0,23.439 -3.349,3.348 -5.58,-5.58 z m 37.948,-36.833 0,-23.44 3.348,-3.347 5.581,5.579 0,25.672 -2.233,2.233 -6.696,-6.697 z m -37.948,4.464 0,-25.672 5.58,-5.579 3.349,3.347 0,23.44 -6.697,6.697 -2.232,-2.233 z m 11.161,-27.904 -4.464,-4.463 4.464,-4.465 24.554,0 4.465,4.465 -4.465,4.463 -24.554,0 z" /></g></g></g></g><g
       id="g116"><g
         clip-path="url(#clipPath120)"
         id="g118"><g
           id="g124"><g
             id="g126"><path
               id="path142"
               style="fill:url(#linearGradient128);stroke:none"
               d="m 209.193,390.973 0,-5.58 8.929,-3.348 26.788,0 4.465,4.464 -4.465,4.464 -35.717,0 z m 37.949,-8.928 0,-23.439 6.697,-6.697 2.232,2.232 0,25.672 -5.581,5.58 -3.348,-3.348 z m -37.949,-27.904 2.233,-2.232 6.696,6.697 0,21.207 -8.929,3.348 0,-29.02 z m 8.929,1.116 -4.464,-4.465 4.464,-4.464 29.02,0 4.465,4.464 -4.465,4.465 -29.02,0 z m 29.02,-12.277 0,-23.44 3.348,-3.347 5.581,5.579 0,25.672 -2.232,2.233 -6.697,-6.697 z m -37.949,4.464 0,-29.02 8.929,3.348 0,21.208 -6.696,6.697 -2.233,-2.233 z m 8.929,-27.904 -8.929,-3.347 0,-5.581 35.605,0 4.465,4.465 -4.465,4.463 -26.676,0 z" /></g></g></g></g><g
       id="g144"><g
         clip-path="url(#clipPath148)"
         id="g146"><g
           id="g152"><g
             id="g154"><path
               id="path170"
               style="fill:url(#linearGradient156);stroke:none"
               d="m 306.407,390.973 c -2.977,-0.745 -4.838,-2.605 -5.581,-5.58 l 0,0 8.93,-3.348 30.023,0 3.349,8.928 -36.721,0 z m -5.693,-36.832 2.233,-2.232 6.697,6.697 0,21.207 -8.93,3.348 0,-29.02 z m 27.904,1.116 -4.465,-4.465 4.465,-4.464 10.045,0 4.465,4.464 -4.465,4.465 -10.045,0 z m 10.045,-12.277 0,-23.44 3.348,-8.928 c 2.976,0.742 4.836,2.603 5.582,5.581 l 0,0 0,31.251 -2.233,2.233 -6.697,-6.697 z m -37.949,4.464 0,-29.02 8.93,3.348 0,21.208 -6.697,6.697 -2.233,-2.233 z m 8.93,-27.904 -8.93,-3.347 c 0.744,-2.978 2.604,-4.839 5.581,-5.581 l 0,0 33.484,0 -3.348,8.928 -26.787,0 z" /></g></g></g></g><g
       id="g172"><g
         clip-path="url(#clipPath176)"
         id="g174"><g
           id="g180"><g
             id="g182"><path
               id="path198"
               style="fill:url(#linearGradient184);stroke:none"
               d="m 396.701,382.045 0,-23.439 6.697,-6.697 2.232,2.232 0,31.252 c -0.744,2.975 -2.605,4.835 -5.581,5.58 l 0,0 -3.348,-8.928 z m -32.257,8.928 c -2.976,-0.745 -4.837,-2.605 -5.58,-5.58 l 0,0 8.929,-3.348 26.676,0 3.348,8.928 -33.373,0 z m -5.691,-36.832 2.232,-2.232 6.696,6.697 0,21.207 -8.928,3.348 0,-29.02 z m 8.928,1.116 -4.464,-4.465 4.464,-4.464 29.02,0 4.465,4.464 -4.465,4.465 -29.02,0 z m 29.02,-12.277 0,-23.44 3.348,-8.928 c 2.976,0.742 4.837,2.603 5.581,5.581 l 0,0 0,31.251 -2.232,2.233 -6.697,-6.697 z m -37.948,4.464 0,-31.251 c 0.742,-2.978 2.603,-4.839 5.58,-5.581 l 0,0 3.348,8.928 0,23.44 -6.696,6.697 -2.232,-2.233 z" /></g></g></g></g><g
       id="g200"><g
         clip-path="url(#clipPath204)"
         id="g202"><g
           id="g208"><g
             id="g210"><path
               id="path226"
               style="fill:url(#linearGradient212);stroke:none"
               d="m 454.739,382.045 0,-23.439 6.696,-6.697 2.233,2.232 0,31.252 c -0.744,2.975 -2.606,4.835 -5.58,5.58 l 0,0 -3.349,-8.928 z m -32.256,8.928 c -2.977,-0.745 -4.838,-2.605 -5.581,-5.58 l 0,0 8.929,-3.348 26.675,0 3.348,8.928 -33.371,0 z m -5.692,-36.832 2.232,-2.232 6.696,6.697 0,21.207 -8.928,3.348 0,-29.02 z m 18.975,25.672 0,-25.672 4.464,-4.464 4.464,4.464 0,25.672 -8.928,0 z m 18.973,-36.833 0,-23.44 3.349,-8.928 c 2.974,0.742 4.836,2.603 5.58,5.581 l 0,0 0,31.251 -2.233,2.233 -6.696,-6.697 z m -37.948,4.464 0,-31.251 c 0.742,-2.978 2.604,-4.839 5.581,-5.581 l 0,0 3.347,8.928 0,23.44 -6.696,6.697 -2.232,-2.233 z" /></g></g></g></g><g
       id="g228"><g
         clip-path="url(#clipPath232)"
         id="g230"><g
           id="g236"><g
             id="g238"><path
               id="path254"
               style="fill:url(#linearGradient240);stroke:none"
               d="m 480.52,390.973 c -2.978,-0.745 -4.839,-2.605 -5.582,-5.58 l 0,0 8.929,-3.348 30.024,0 3.349,8.928 -36.72,0 z m -5.693,-36.832 2.232,-2.232 6.696,6.697 0,21.207 -8.928,3.348 0,-29.02 z m 8.928,1.116 -4.465,-4.465 4.465,-4.464 29.02,0 4.465,4.464 -4.465,4.465 -29.02,0 z m -8.928,-7.813 0,-29.02 8.928,3.348 0,21.208 -6.696,6.697 -2.232,-2.233 z m 8.928,-27.904 -8.928,-3.347 c 0.742,-2.978 2.603,-4.839 5.581,-5.581 l 0,0 36.832,0 -3.349,8.928 -30.136,0 z" /></g></g></g></g><g
       id="g256"><g
         clip-path="url(#clipPath260)"
         id="g258"><g
           id="g264"><g
             id="g266"><path
               id="path282"
               style="fill:url(#linearGradient268);stroke:none"
               d="m 599.833,382.045 0,-23.439 6.696,-6.697 2.233,2.232 0,31.252 c -0.745,2.975 -2.607,4.835 -5.58,5.58 l 0,0 -3.349,-8.928 z m 0,-39.065 0,-23.44 3.349,-8.928 c 2.973,0.742 4.835,2.603 5.58,5.581 l 0,0 0,31.251 -2.233,2.233 -6.696,-6.697 z m -37.95,4.464 0,-29.02 8.929,3.348 0,21.208 -6.696,6.697 -2.233,-2.233 z m 8.929,-27.904 -8.929,-3.347 c 0.743,-2.978 2.605,-4.839 5.582,-5.581 l 0,0 33.484,0 -3.349,8.928 -26.788,0 z" /></g></g></g></g><g
       id="g284"><g
         clip-path="url(#clipPath288)"
         id="g286"><g
           id="g292"><g
             id="g294"><path
               id="path310"
               style="fill:url(#linearGradient296);stroke:none"
               d="m 657.871,382.045 0,-23.439 6.696,-6.697 2.234,2.232 0,31.252 c -0.744,2.975 -2.606,4.835 -5.581,5.58 l 0,0 -3.349,-8.928 z m -32.255,8.928 c -2.978,-0.745 -4.839,-2.605 -5.582,-5.58 l 0,0 8.929,-3.348 26.675,0 3.349,8.928 -33.371,0 z m -5.693,-36.832 2.233,-2.232 6.696,6.697 0,21.207 -8.929,3.348 0,-29.02 z m 8.929,1.116 -4.465,-4.465 4.465,-4.464 29.019,0 4.465,4.464 -4.465,4.465 -29.019,0 z m 29.019,-12.277 0,-23.44 3.349,-8.928 c 2.975,0.742 4.837,2.603 5.581,5.581 l 0,0 0,31.251 -2.234,2.233 -6.696,-6.697 z m -37.948,4.464 0,-31.251 c 0.742,-2.978 2.603,-4.839 5.581,-5.581 l 0,0 3.348,8.928 0,23.44 -6.696,6.697 -2.233,-2.233 z" /></g></g></g></g><g
       id="g312"><g
         clip-path="url(#clipPath316)"
         id="g314"><g
           id="g320"><g
             id="g322"><path
               id="path338"
               style="fill:url(#linearGradient324);stroke:none"
               d="m 715.909,382.045 0,-23.439 6.696,-6.697 2.232,2.232 0,31.252 c -0.744,2.975 -2.605,4.835 -5.579,5.58 l 0,0 -3.349,-8.928 z m -32.256,8.928 c -2.978,-0.745 -4.84,-2.605 -5.582,-5.58 l 0,0 8.929,-3.348 26.676,0 3.349,8.928 -33.372,0 z m -5.694,-36.832 2.233,-2.232 6.696,6.697 0,21.207 -8.929,3.348 0,-29.02 z m 18.976,25.672 0,-25.672 4.465,-4.464 4.464,4.464 0,25.672 -8.929,0 z m 18.974,-36.833 0,-23.44 3.349,-8.928 c 2.974,0.742 4.835,2.603 5.579,5.581 l 0,0 0,31.251 -2.232,2.233 -6.696,-6.697 z m -37.95,4.464 0,-31.251 c 0.743,-2.978 2.605,-4.839 5.582,-5.581 l 0,0 3.347,8.928 0,23.44 -6.696,6.697 -2.233,-2.233 z" /></g></g></g></g></g></svg>